<svg width="512" height="512" viewBox="0 0 512 512" fill="none" xmlns="http://www.w3.org/2000/svg">
<rect width="512" height="512" fill="white"/>
<path d="M108.823 380.606H36V132.394H113.192C136.9 132.394 157.169 137.322 173.999 147.18C190.91 157.037 203.856 171.177 212.837 189.599C221.819 208.021 226.31 230.119 226.31 255.894C226.31 281.911 221.698 304.252 212.473 322.916C203.33 341.5 189.979 355.761 172.421 365.699C154.944 375.637 133.744 380.606 108.823 380.606ZM58.6964 360.245H107.487C128.849 360.245 146.731 356.044 161.133 347.641C175.536 339.238 186.338 327.239 193.539 311.645C200.741 296.051 204.342 277.467 204.342 255.894C204.261 234.482 200.7 216.06 193.661 200.628C186.702 185.195 176.345 173.358 162.59 165.117C148.915 156.875 132.004 152.755 111.857 152.755H58.6964V360.245Z" fill="url(#paint0_linear_98_259)"/>
<path d="M476 209.96H453.182C451.483 201.476 448.408 193.639 443.958 186.448C439.589 179.176 434.087 172.833 427.452 167.42C420.817 162.006 413.292 157.805 404.877 154.815C396.462 151.826 387.359 150.331 377.568 150.331C361.871 150.331 347.549 154.411 334.603 162.572C321.738 170.732 311.421 182.731 303.653 198.567C295.966 214.323 292.123 233.634 292.123 256.5C292.123 279.528 295.966 298.919 303.653 314.675C311.421 330.431 321.738 342.389 334.603 350.549C347.549 358.629 361.871 362.669 377.568 362.669C387.359 362.669 396.462 361.174 404.877 358.185C413.292 355.195 420.817 351.034 427.452 345.702C434.087 340.288 439.589 333.945 443.958 326.673C448.408 319.402 451.483 311.524 453.182 303.04H476C473.977 314.433 470.174 325.058 464.591 334.915C459.089 344.692 452.05 353.256 443.473 360.609C434.977 367.961 425.186 373.698 414.101 377.819C403.016 381.94 390.838 384 377.568 384C356.692 384 338.163 378.788 321.98 368.365C305.798 357.862 293.094 343.076 283.87 324.007C274.727 304.939 270.155 282.436 270.155 256.5C270.155 230.564 274.727 208.061 283.87 188.993C293.094 169.924 305.798 155.179 321.98 144.756C338.163 134.252 356.692 129 377.568 129C390.838 129 403.016 131.06 414.101 135.181C425.186 139.221 434.977 144.958 443.473 152.391C452.05 159.744 459.089 168.308 464.591 178.085C470.174 187.862 473.977 198.487 476 209.96Z" fill="url(#paint1_linear_98_259)"/>
<defs>
<linearGradient id="paint0_linear_98_259" x1="12.4808" y1="113.852" x2="103.62" y2="53.3835" gradientUnits="userSpaceOnUse">
<stop stop-color="#0083FF"/>
<stop offset="1" stop-color="#4FE09C"/>
</linearGradient>
<linearGradient id="paint1_linear_98_259" x1="12.4808" y1="113.852" x2="103.62" y2="53.3835" gradientUnits="userSpaceOnUse">
<stop stop-color="#0083FF"/>
<stop offset="1" stop-color="#4FE09C"/>
</linearGradient>
</defs>
</svg>
