<svg width="100" height="100" viewBox="0 0 100 100" fill="none" xmlns="http://www.w3.org/2000/svg">
<path d="M50 68.5917C50.7278 68.5917 51.3375 68.3458 51.8292 67.8542C52.3181 67.3625 52.5625 66.7528 52.5625 66.025C52.5625 65.3 52.3167 64.6917 51.825 64.2C51.3333 63.7083 50.725 63.4611 50 63.4583C49.275 63.4556 48.6667 63.7014 48.175 64.1958C47.6833 64.6903 47.4375 65.2986 47.4375 66.0208C47.4375 66.7431 47.6833 67.3528 48.175 67.85C48.6667 68.3472 49.275 68.5972 50 68.5917ZM47.9167 54.8042H52.0833V29.8042H47.9167V54.8042ZM50.0125 87.5C44.8292 87.5 39.9542 86.5167 35.3875 84.55C30.8236 82.5806 26.8528 79.9083 23.475 76.5333C20.0972 73.1583 17.4236 69.1917 15.4542 64.6333C13.4847 60.075 12.5 55.2014 12.5 50.0125C12.5 44.8236 13.4847 39.9486 15.4542 35.3875C17.4208 30.8236 20.0889 26.8528 23.4583 23.475C26.8278 20.0972 30.7958 17.4236 35.3625 15.4542C39.9292 13.4847 44.8042 12.5 49.9875 12.5C55.1708 12.5 60.0458 13.4847 64.6125 15.4542C69.1764 17.4208 73.1472 20.0903 76.525 23.4625C79.9028 26.8347 82.5764 30.8028 84.5458 35.3667C86.5153 39.9306 87.5 44.8042 87.5 49.9875C87.5 55.1708 86.5167 60.0458 84.55 64.6125C82.5833 69.1792 79.9111 73.15 76.5333 76.525C73.1556 79.9 69.1889 82.5736 64.6333 84.5458C60.0778 86.5181 55.2042 87.5028 50.0125 87.5ZM50 83.3333C59.3056 83.3333 67.1875 80.1042 73.6458 73.6458C80.1042 67.1875 83.3333 59.3056 83.3333 50C83.3333 40.6944 80.1042 32.8125 73.6458 26.3542C67.1875 19.8958 59.3056 16.6667 50 16.6667C40.6944 16.6667 32.8125 19.8958 26.3542 26.3542C19.8958 32.8125 16.6667 40.6944 16.6667 50C16.6667 59.3056 19.8958 67.1875 26.3542 73.6458C32.8125 80.1042 40.6944 83.3333 50 83.3333Z" fill="url(#paint0_linear_65_560)"/>
<defs>
<linearGradient id="paint0_linear_65_560" x1="50" y1="12.5" x2="50" y2="87.5" gradientUnits="userSpaceOnUse">
<stop stop-color="#4FE09C"/>
<stop offset="1" stop-color="#0083FF"/>
</linearGradient>
</defs>
</svg>
