<svg width="20" height="20" viewBox="0 0 20 20" fill="none" xmlns="http://www.w3.org/2000/svg">
<rect width="20" height="20" fill="white"/>
<path d="M17.9682 2.86986L17.2322 2.13392C17.0242 1.92593 16.6402 1.95794 16.4002 2.24588L13.84 4.78985C12.688 4.29391 11.4241 4.05391 10.096 4.05391C6.14392 4.06984 2.72014 6.37381 1.07202 9.68602C0.975993 9.89401 0.975993 10.1499 1.07202 10.3259C1.83995 11.894 2.99202 13.19 4.43203 14.1659L2.33603 16.2939C2.09603 16.5339 2.06402 16.9179 2.22407 17.1259L2.96002 17.8618C3.16801 18.0698 3.55199 18.0378 3.79199 17.7499L17.8399 3.70198C18.1439 3.46211 18.1759 3.07815 17.9679 2.87014L17.9682 2.86986ZM10.944 7.70175C10.672 7.63773 10.3841 7.55778 10.112 7.55778C8.752 7.55778 7.66411 8.6458 7.66411 10.0057C7.66411 10.2777 7.72813 10.5657 7.80809 10.8377L6.73597 11.8937C6.41601 11.3338 6.24003 10.7097 6.24003 10.0057C6.24003 7.87776 7.95205 6.16574 10.08 6.16574C10.7841 6.16574 11.4081 6.34172 11.968 6.66168L10.944 7.70175Z" fill="#0083FF"/>
<path d="M19.1201 9.68596C18.5602 8.56591 17.8241 7.55798 16.9122 6.74194L13.9361 9.68596V10.0059C13.9361 12.1339 12.2241 13.8459 10.0961 13.8459H9.77617L7.88818 15.7339C8.59224 15.8779 9.32819 15.9739 10.0482 15.9739C14.0003 15.9739 17.4241 13.6699 19.0722 10.3418C19.2162 10.1177 19.2162 9.8938 19.1202 9.68578L19.1201 9.68596Z" fill="#0083FF"/>
</svg>
