<svg width="47" height="28" viewBox="0 0 47 28" fill="none" xmlns="http://www.w3.org/2000/svg">
<path d="M8.14773 27H0.477273V0.818181H8.60795C11.1051 0.818181 13.2401 1.33807 15.0128 2.37784C16.794 3.41761 18.1577 4.90909 19.1037 6.85227C20.0497 8.79545 20.5227 11.1264 20.5227 13.8452C20.5227 16.5895 20.0369 18.946 19.0653 20.9148C18.1023 22.875 16.696 24.3793 14.8466 25.4276C13.0057 26.4759 10.7727 27 8.14773 27ZM2.8679 24.8523H8.0071C10.2571 24.8523 12.1406 24.4091 13.6577 23.5227C15.1747 22.6364 16.3125 21.3707 17.071 19.7259C17.8295 18.081 18.2088 16.1207 18.2088 13.8452C18.2003 11.5866 17.8253 9.64347 17.0838 8.01562C16.3509 6.38778 15.2599 5.1392 13.8111 4.26989C12.3707 3.40057 10.5895 2.96591 8.46733 2.96591H2.8679V24.8523ZM46.8228 9H44.4194C44.2404 8.10511 43.9165 7.27841 43.4478 6.51989C42.9876 5.75284 42.408 5.08381 41.7092 4.51278C41.0103 3.94176 40.2177 3.49858 39.3313 3.18324C38.445 2.8679 37.4862 2.71023 36.4549 2.71023C34.8015 2.71023 33.293 3.14062 31.9293 4.00142C30.5742 4.86221 29.4876 6.12784 28.6694 7.7983C27.8597 9.46023 27.4549 11.4972 27.4549 13.9091C27.4549 16.3381 27.8597 18.3835 28.6694 20.0455C29.4876 21.7074 30.5742 22.9687 31.9293 23.8295C33.293 24.6818 34.8015 25.108 36.4549 25.108C37.4862 25.108 38.445 24.9503 39.3313 24.6349C40.2177 24.3196 41.0103 23.8807 41.7092 23.3182C42.408 22.7472 42.9876 22.0781 43.4478 21.3111C43.9165 20.544 44.2404 19.7131 44.4194 18.8182H46.8228C46.6097 20.0199 46.2092 21.1406 45.6211 22.1804C45.0415 23.2116 44.3001 24.1151 43.3967 24.8906C42.5018 25.6662 41.4705 26.2713 40.3029 26.706C39.1353 27.1406 37.8526 27.358 36.4549 27.358C34.256 27.358 32.3043 26.8082 30.5998 25.7088C28.8952 24.6009 27.5572 23.0412 26.5856 21.0298C25.6225 19.0185 25.141 16.6449 25.141 13.9091C25.141 11.1733 25.6225 8.79972 26.5856 6.78835C27.5572 4.77699 28.8952 3.22159 30.5998 2.12216C32.3043 1.0142 34.256 0.460226 36.4549 0.460226C37.8526 0.460226 39.1353 0.677556 40.3029 1.11222C41.4705 1.53835 42.5018 2.14347 43.3967 2.92756C44.3001 3.70313 45.0415 4.60653 45.6211 5.63778C46.2092 6.66903 46.6097 7.78977 46.8228 9Z" fill="url(#paint0_linear_46_306)"/>
<defs>
<linearGradient id="paint0_linear_46_306" x1="-2" y1="-1.13761" x2="7.60816" y2="-7.50328" gradientUnits="userSpaceOnUse">
<stop stop-color="#0083FF"/>
<stop offset="1" stop-color="#4FE09C"/>
</linearGradient>
</defs>
</svg>
