<svg width="227" height="35" viewBox="0 0 227 35" fill="none" xmlns="http://www.w3.org/2000/svg">
<path d="M8.14773 27H0.477273V0.818181H8.60795C11.1051 0.818181 13.2401 1.33807 15.0128 2.37784C16.794 3.41761 18.1577 4.90909 19.1037 6.85227C20.0497 8.79545 20.5227 11.1264 20.5227 13.8452C20.5227 16.5895 20.0369 18.946 19.0653 20.9148C18.1023 22.875 16.696 24.3793 14.8466 25.4276C13.0057 26.4759 10.7727 27 8.14773 27ZM2.8679 24.8523H8.0071C10.2571 24.8523 12.1406 24.4091 13.6577 23.5227C15.1747 22.6364 16.3125 21.3707 17.071 19.7259C17.8295 18.081 18.2088 16.1207 18.2088 13.8452C18.2003 11.5866 17.8253 9.64347 17.0838 8.01562C16.3509 6.38778 15.2599 5.1392 13.8111 4.26989C12.3707 3.40057 10.5895 2.96591 8.46733 2.96591H2.8679V24.8523ZM38.3214 19.4957V7.36364H40.5969V27H38.3214V23.7401H38.1424C37.6822 24.7457 36.9535 25.5852 35.9563 26.2585C34.9592 26.9233 33.7404 27.2557 32.3001 27.2557C31.0472 27.2557 29.935 26.983 28.9634 26.4375C27.9918 25.8835 27.229 25.0739 26.6751 24.0085C26.1211 22.9432 25.8441 21.6349 25.8441 20.0838V7.36364H28.1197V19.9432C28.1197 21.4773 28.5714 22.7131 29.4748 23.6506C30.3782 24.5795 31.5373 25.044 32.9521 25.044C33.8384 25.044 34.6907 24.831 35.5089 24.4048C36.3271 23.9787 37.0004 23.3565 37.5288 22.5384C38.0572 21.7116 38.3214 20.6974 38.3214 19.4957ZM54.3558 7.36364V9.34517H44.9851V7.36364H54.3558ZM47.9126 2.65909H50.201V21.8736C50.201 22.6918 50.3416 23.3352 50.6229 23.804C50.9041 24.2642 51.2706 24.5923 51.7223 24.7884C52.174 24.9759 52.6555 25.0696 53.1669 25.0696C53.4652 25.0696 53.7209 25.0526 53.9339 25.0185C54.147 24.9759 54.3345 24.9332 54.4964 24.8906L54.9822 26.9489C54.7607 27.0341 54.4879 27.1108 54.1641 27.179C53.8402 27.2557 53.4396 27.294 52.9624 27.294C52.1271 27.294 51.3217 27.1108 50.5462 26.7443C49.7791 26.3778 49.1484 25.8324 48.6541 25.108C48.1598 24.3835 47.9126 23.4844 47.9126 22.4105V2.65909ZM61.109 34.3636C60.6573 34.3636 60.2354 34.321 59.8434 34.2358C59.4513 34.1506 59.1403 34.0568 58.9102 33.9545L59.5238 31.9474C60.2994 32.1861 60.9897 32.2713 61.5948 32.2031C62.1999 32.1435 62.7369 31.8707 63.2056 31.3849C63.6744 30.9077 64.092 30.1747 64.4585 29.1861L65.1744 27.1918L57.9513 7.36364H60.4187L66.2482 23.9957H66.4272L72.2567 7.36364H74.7241L66.4144 30.1065C66.065 31.0526 65.6346 31.8409 65.1232 32.4716C64.6119 33.1108 64.0195 33.5838 63.3462 33.8906C62.6815 34.206 61.9357 34.3636 61.109 34.3636ZM100.155 9H97.7514C97.5724 8.10511 97.2486 7.27841 96.7798 6.51989C96.3196 5.75284 95.7401 5.08381 95.0412 4.51278C94.3423 3.94176 93.5497 3.49858 92.6634 3.18324C91.777 2.8679 90.8182 2.71023 89.7869 2.71023C88.1335 2.71023 86.625 3.14062 85.2614 4.00142C83.9063 4.86221 82.8196 6.12784 82.0014 7.7983C81.1918 9.46023 80.7869 11.4972 80.7869 13.9091C80.7869 16.3381 81.1918 18.3835 82.0014 20.0455C82.8196 21.7074 83.9063 22.9687 85.2614 23.8295C86.625 24.6818 88.1335 25.108 89.7869 25.108C90.8182 25.108 91.777 24.9503 92.6634 24.6349C93.5497 24.3196 94.3423 23.8807 95.0412 23.3182C95.7401 22.7472 96.3196 22.0781 96.7798 21.3111C97.2486 20.544 97.5724 19.7131 97.7514 18.8182H100.155C99.9418 20.0199 99.5412 21.1406 98.9531 22.1804C98.3736 23.2116 97.6321 24.1151 96.7287 24.8906C95.8338 25.6662 94.8026 26.2713 93.6349 26.706C92.4673 27.1406 91.1847 27.358 89.7869 27.358C87.5881 27.358 85.6364 26.8082 83.9318 25.7088C82.2273 24.6009 80.8892 23.0412 79.9176 21.0298C78.9545 19.0185 78.473 16.6449 78.473 13.9091C78.473 11.1733 78.9545 8.79972 79.9176 6.78835C80.8892 4.77699 82.2273 3.22159 83.9318 2.12216C85.6364 1.0142 87.5881 0.460226 89.7869 0.460226C91.1847 0.460226 92.4673 0.677556 93.6349 1.11222C94.8026 1.53835 95.8338 2.14347 96.7287 2.92756C97.6321 3.70313 98.3736 4.60653 98.9531 5.63778C99.5412 6.66903 99.9418 7.78977 100.155 9ZM110.782 27.4474C109.597 27.4474 108.515 27.2173 107.534 26.7571C106.554 26.2884 105.775 25.6151 105.195 24.7372C104.615 23.8509 104.326 22.777 104.326 21.5156C104.326 20.544 104.509 19.7259 104.875 19.0611C105.242 18.3963 105.762 17.8509 106.435 17.4247C107.108 16.9986 107.905 16.6619 108.826 16.4148C109.746 16.1676 110.76 15.9759 111.868 15.8395C112.968 15.7031 113.897 15.5838 114.655 15.4815C115.422 15.3793 116.006 15.2173 116.407 14.9957C116.807 14.7741 117.007 14.4162 117.007 13.9219V13.4616C117.007 12.1236 116.607 11.071 115.806 10.304C115.013 9.52841 113.871 9.14062 112.38 9.14062C110.965 9.14062 109.81 9.4517 108.915 10.0739C108.029 10.696 107.407 11.429 107.049 12.2727L104.888 11.4929C105.331 10.419 105.945 9.5625 106.729 8.9233C107.513 8.27557 108.391 7.81108 109.363 7.52983C110.334 7.24006 111.319 7.09517 112.316 7.09517C113.066 7.09517 113.846 7.19318 114.655 7.3892C115.473 7.58523 116.232 7.92614 116.931 8.41193C117.63 8.8892 118.196 9.55824 118.631 10.419C119.066 11.2713 119.283 12.3537 119.283 13.6662V27H117.007V23.8935H116.867C116.594 24.473 116.189 25.0355 115.652 25.581C115.115 26.1264 114.442 26.5739 113.632 26.9233C112.823 27.2727 111.873 27.4474 110.782 27.4474ZM111.088 25.3636C112.299 25.3636 113.347 25.0952 114.233 24.5582C115.12 24.0213 115.801 23.3097 116.279 22.4233C116.765 21.5284 117.007 20.544 117.007 19.4702V16.6321C116.837 16.794 116.551 16.9389 116.151 17.0668C115.759 17.1946 115.303 17.3097 114.783 17.4119C114.272 17.5057 113.76 17.5866 113.249 17.6548C112.738 17.723 112.277 17.7827 111.868 17.8338C110.76 17.9702 109.814 18.1832 109.03 18.473C108.246 18.7628 107.645 19.1634 107.228 19.6747C106.81 20.1776 106.601 20.8253 106.601 21.6179C106.601 22.8111 107.027 23.7358 107.88 24.392C108.732 25.0398 109.801 25.3636 111.088 25.3636ZM127.612 0.818181V27H125.336V0.818181H127.612ZM141.572 27.4091C139.74 27.4091 138.154 26.983 136.816 26.1307C135.478 25.2699 134.443 24.081 133.71 22.5639C132.985 21.0384 132.623 19.2827 132.623 17.2969C132.623 15.3196 132.985 13.5639 133.71 12.0298C134.443 10.4872 135.453 9.28125 136.74 8.41193C138.035 7.53409 139.531 7.09517 141.227 7.09517C142.292 7.09517 143.319 7.29119 144.308 7.68324C145.297 8.06676 146.183 8.65909 146.967 9.46023C147.76 10.2528 148.386 11.2543 148.846 12.4645C149.306 13.6662 149.537 15.0895 149.537 16.7344V17.8594H134.196V15.8523H147.21C147.21 14.5909 146.954 13.4574 146.443 12.4517C145.94 11.4375 145.237 10.6364 144.333 10.0483C143.439 9.46023 142.403 9.16619 141.227 9.16619C139.983 9.16619 138.887 9.49858 137.941 10.1634C136.995 10.8281 136.254 11.706 135.717 12.7969C135.189 13.8878 134.92 15.081 134.912 16.3764V17.5781C134.912 19.1378 135.18 20.5014 135.717 21.669C136.262 22.8281 137.034 23.7273 138.031 24.3665C139.028 25.0057 140.208 25.3253 141.572 25.3253C142.501 25.3253 143.315 25.1804 144.014 24.8906C144.721 24.6009 145.314 24.2131 145.791 23.7273C146.277 23.233 146.643 22.6918 146.89 22.1037L149.051 22.8068C148.752 23.6335 148.262 24.3963 147.581 25.0952C146.907 25.794 146.064 26.3565 145.049 26.7827C144.044 27.2003 142.885 27.4091 141.572 27.4091ZM156.827 14.7273V27H154.551V7.36364H156.763V10.4446H156.967C157.428 9.43892 158.143 8.63352 159.115 8.02841C160.095 7.41477 161.305 7.10795 162.746 7.10795C164.067 7.10795 165.226 7.38494 166.223 7.93892C167.229 8.48437 168.009 9.28977 168.562 10.3551C169.125 11.4205 169.406 12.7287 169.406 14.2798V27H167.131V14.4205C167.131 12.8097 166.679 11.5355 165.776 10.598C164.881 9.66051 163.679 9.19176 162.17 9.19176C161.139 9.19176 160.223 9.41335 159.422 9.85653C158.621 10.2997 157.986 10.9389 157.517 11.7741C157.057 12.6009 156.827 13.5852 156.827 14.7273ZM182.468 27.4091C180.858 27.4091 179.447 26.983 178.237 26.1307C177.027 25.2784 176.081 24.0895 175.399 22.5639C174.725 21.0384 174.389 19.2614 174.389 17.233C174.389 15.2131 174.725 13.4446 175.399 11.9276C176.081 10.402 177.031 9.21733 178.25 8.37358C179.468 7.52131 180.887 7.09517 182.507 7.09517C183.7 7.09517 184.693 7.30824 185.485 7.73438C186.278 8.15199 186.913 8.67187 187.39 9.29403C187.868 9.91619 188.238 10.5213 188.502 11.1094H188.707V0.818181H190.995V27H188.771V23.3565H188.502C188.238 23.9531 187.863 24.5668 187.377 25.1974C186.892 25.8196 186.248 26.3437 185.447 26.7699C184.654 27.196 183.662 27.4091 182.468 27.4091ZM182.737 25.3253C184.007 25.3253 185.089 24.9801 185.984 24.2898C186.879 23.5909 187.561 22.6321 188.029 21.4134C188.507 20.1861 188.745 18.7798 188.745 17.1946C188.745 15.6264 188.511 14.2415 188.042 13.0398C187.574 11.8295 186.892 10.8835 185.997 10.2017C185.102 9.51136 184.015 9.16619 182.737 9.16619C181.424 9.16619 180.316 9.52415 179.413 10.2401C178.518 10.9474 177.836 11.9062 177.368 13.1165C176.907 14.3267 176.677 15.6861 176.677 17.1946C176.677 18.7202 176.912 20.0966 177.38 21.3239C177.849 22.5511 178.531 23.527 179.426 24.2514C180.329 24.9673 181.433 25.3253 182.737 25.3253ZM202.961 27.4474C201.777 27.4474 200.694 27.2173 199.714 26.7571C198.734 26.2884 197.954 25.6151 197.375 24.7372C196.795 23.8509 196.505 22.777 196.505 21.5156C196.505 20.544 196.689 19.7259 197.055 19.0611C197.422 18.3963 197.941 17.8509 198.615 17.4247C199.288 16.9986 200.085 16.6619 201.005 16.4148C201.926 16.1676 202.94 15.9759 204.048 15.8395C205.147 15.7031 206.076 15.5838 206.835 15.4815C207.602 15.3793 208.186 15.2173 208.586 14.9957C208.987 14.7741 209.187 14.4162 209.187 13.9219V13.4616C209.187 12.1236 208.787 11.071 207.985 10.304C207.193 9.52841 206.051 9.14062 204.559 9.14062C203.145 9.14062 201.99 9.4517 201.095 10.0739C200.208 10.696 199.586 11.429 199.228 12.2727L197.068 11.4929C197.511 10.419 198.125 9.5625 198.909 8.9233C199.693 8.27557 200.571 7.81108 201.542 7.52983C202.514 7.24006 203.498 7.09517 204.495 7.09517C205.245 7.09517 206.025 7.19318 206.835 7.3892C207.653 7.58523 208.412 7.92614 209.11 8.41193C209.809 8.8892 210.376 9.55824 210.811 10.419C211.245 11.2713 211.463 12.3537 211.463 13.6662V27H209.187V23.8935H209.047C208.774 24.473 208.369 25.0355 207.832 25.581C207.295 26.1264 206.622 26.5739 205.812 26.9233C205.002 27.2727 204.052 27.4474 202.961 27.4474ZM203.268 25.3636C204.478 25.3636 205.527 25.0952 206.413 24.5582C207.299 24.0213 207.981 23.3097 208.458 22.4233C208.944 21.5284 209.187 20.544 209.187 19.4702V16.6321C209.017 16.794 208.731 16.9389 208.331 17.0668C207.939 17.1946 207.483 17.3097 206.963 17.4119C206.451 17.5057 205.94 17.5866 205.429 17.6548C204.917 17.723 204.457 17.7827 204.048 17.8338C202.94 17.9702 201.994 18.1832 201.21 18.473C200.426 18.7628 199.825 19.1634 199.407 19.6747C198.99 20.1776 198.781 20.8253 198.781 21.6179C198.781 22.8111 199.207 23.7358 200.059 24.392C200.912 25.0398 201.981 25.3636 203.268 25.3636ZM217.516 27V7.36364H219.728V10.3807H219.894C220.286 9.39204 220.968 8.59517 221.939 7.99006C222.919 7.37642 224.027 7.0696 225.263 7.0696C225.451 7.0696 225.659 7.07386 225.89 7.08239C226.12 7.09091 226.311 7.09943 226.465 7.10795V9.42188C226.363 9.40483 226.184 9.37926 225.928 9.34517C225.672 9.31108 225.395 9.29403 225.097 9.29403C224.074 9.29403 223.162 9.51136 222.361 9.94602C221.569 10.3722 220.942 10.9645 220.482 11.723C220.022 12.4815 219.792 13.3466 219.792 14.3182V27H217.516Z" fill="url(#paint0_linear_46_307)"/>
<defs>
<linearGradient id="paint0_linear_46_307" x1="1.44231" y1="-1.13761" x2="7.79884" y2="-19.8458" gradientUnits="userSpaceOnUse">
<stop stop-color="#0083FF"/>
<stop offset="1" stop-color="#4FE09C"/>
</linearGradient>
</defs>
</svg>
