<svg width="16" height="15" viewBox="0 0 16 15" fill="none" xmlns="http://www.w3.org/2000/svg">
<path d="M5.33374 9.54288C5.92496 9.54272 6.49945 9.74352 6.9669 10.1137C7.43434 10.4839 7.76821 11.0024 7.91601 11.5878H15.3322C15.4988 11.5875 15.6594 11.6509 15.7825 11.7657C15.9056 11.8805 15.9822 12.0382 15.9973 12.2078C16.0123 12.3775 15.9647 12.5467 15.8638 12.6823C15.7629 12.8178 15.6161 12.9098 15.4522 12.9401L15.3322 12.951L7.91601 12.9524C7.76871 13.5383 7.43505 14.0574 6.96756 14.4281C6.50007 14.7988 5.92531 15 5.33374 15C4.74218 15 4.16741 14.7988 3.69993 14.4281C3.23244 14.0574 2.89878 13.5383 2.75147 12.9524L0.667793 12.951C0.501224 12.9514 0.340576 12.8879 0.217485 12.7731C0.094393 12.6584 0.0177782 12.5006 0.00272788 12.331C-0.0123224 12.1614 0.0352822 11.9921 0.136167 11.8566C0.237053 11.721 0.383907 11.629 0.547811 11.5987L0.667793 11.5878H2.75147C2.89928 11.0024 3.23315 10.4839 3.70059 10.1137C4.16803 9.74352 4.74253 9.54272 5.33374 9.54288ZM5.33374 10.9061C4.98018 10.9061 4.64109 11.0498 4.39108 11.3054C4.14107 11.5611 4.00061 11.9079 4.00061 12.2694C4.00061 12.631 4.14107 12.9777 4.39108 13.2334C4.64109 13.4891 4.98018 13.6327 5.33374 13.6327C5.68731 13.6327 6.0264 13.4891 6.27641 13.2334C6.52642 12.9777 6.66687 12.631 6.66687 12.2694C6.66687 11.9079 6.52642 11.5611 6.27641 11.3054C6.0264 11.0498 5.68731 10.9061 5.33374 10.9061ZM10.6663 8.81237e-08C11.2575 -0.000153569 11.832 0.20064 12.2994 0.570808C12.7669 0.940975 13.1007 1.45952 13.2485 2.0449H15.3322C15.4988 2.04459 15.6594 2.10806 15.7825 2.22282C15.9056 2.33758 15.9822 2.49531 15.9973 2.66495C16.0123 2.83458 15.9647 3.00384 15.8638 3.13938C15.7629 3.27492 15.6161 3.36692 15.4522 3.39726L15.3322 3.40817L13.2485 3.40953C13.1012 3.99541 12.7676 4.51456 12.3001 4.88525C11.8326 5.25594 11.2578 5.45713 10.6663 5.45713C10.0747 5.45713 9.49993 5.25594 9.03244 4.88525C8.56495 4.51456 8.23129 3.99541 8.08399 3.40953L0.667793 3.40817C0.501224 3.40848 0.340576 3.34501 0.217485 3.23025C0.094393 3.11549 0.0177782 2.95776 0.00272788 2.78813C-0.0123224 2.61849 0.0352822 2.44923 0.136167 2.3137C0.237053 2.17816 0.383907 2.08615 0.547811 2.05581L0.667793 2.0449H8.08399C8.23179 1.45952 8.56566 0.940975 9.03311 0.570808C9.50055 0.20064 10.075 -0.000153569 10.6663 8.81237e-08ZM10.6663 1.36327C10.3127 1.36327 9.9736 1.5069 9.72359 1.76256C9.47358 2.01822 9.33313 2.36497 9.33313 2.72654C9.33313 3.0881 9.47358 3.43485 9.72359 3.69051C9.9736 3.94617 10.3127 4.0898 10.6663 4.0898C11.0198 4.0898 11.3589 3.94617 11.6089 3.69051C11.8589 3.43485 11.9994 3.0881 11.9994 2.72654C11.9994 2.36497 11.8589 2.01822 11.6089 1.76256C11.3589 1.5069 11.0198 1.36327 10.6663 1.36327Z" fill="#0083FF"/>
</svg>
